<?xml version="1.0" encoding="UTF-8" standalone="no"?>
<svg
   width="45.470001"
   height="52.490002"
   version="1.1"
   id="svg13"
   sodipodi:docname="logo.svg"
   inkscape:version="1.1.1 (3bf5ae0d25, 2021-09-20)"
   xmlns:inkscape="http://www.inkscape.org/namespaces/inkscape"
   xmlns:sodipodi="http://sodipodi.sourceforge.net/DTD/sodipodi-0.dtd"
   xmlns="http://www.w3.org/2000/svg"
   xmlns:svg="http://www.w3.org/2000/svg">
  <sodipodi:namedview
     id="namedview15"
     pagecolor="#ffffff"
     bordercolor="#666666"
     borderopacity="1.0"
     inkscape:pageshadow="2"
     inkscape:pageopacity="0.0"
     inkscape:pagecheckerboard="0"
     showgrid="false"
     inkscape:zoom="5.3381643"
     inkscape:cx="103.40633"
     inkscape:cy="27.443891"
     inkscape:window-width="1920"
     inkscape:window-height="1014"
     inkscape:window-x="-8"
     inkscape:window-y="34"
     inkscape:window-maximized="1"
     inkscape:current-layer="svg13" />
  <defs
     id="defs5" />
  <path
     d="M 22.73,0 0,13.12 V 39.36 L 22.73,52.49 45.47,39.37 V 13.12 Z m 13.62,11.6 5.89,3.4 v 6.34 l -5.88,5.89 z m 1.78,28.27 -10.6,6.13 -6,-6.11 z M 3.24,15.67 H 13.76 L 13.4,16 c -0.3,0.28 -0.6,0.58 -0.87,0.87 l -9.29,9.32 z m 12.42,2.67 A 10.44,10.44 0 1 1 15.73,34 L 14.55,32.8 A 10.4,10.4 0 0 1 14.8,19.2 Z m 7.72,-5.87 H 7.65 l 10.21,-5.92 6,6 z M 12.24,35 a 13.54,13.54 0 0 0 1.19,1.21 l 11.2,11.41 -1.9,1.1 L 12,42.54 V 34.75 Z M 33.11,17.16 20.76,4.87 l 2,-1.14 10.38,6 v 7.44 z M 31.5,36.63 42.23,25.91 v 10.72 z m -22.77,4 -5.5,-3.13 v -6.74 l 5.5,-5.49 z"
     fill="#273a64"
     id="path9" />
</svg>
